<svg width="28" height="28" viewBox="0 0 28 28" fill="none" xmlns="http://www.w3.org/2000/svg">
<path d="M14.5368 15.834L10.7982 16.3688L11.332 12.6292L20.9464 3.01481C21.3714 2.58983 21.9478 2.35107 22.5488 2.35107C23.1498 2.35107 23.7262 2.58983 24.1512 3.01481C24.5762 3.43979 24.8149 4.01619 24.8149 4.61721C24.8149 5.21823 24.5762 5.79463 24.1512 6.21961L14.5368 15.834Z" stroke="#1E1E1E" stroke-width="2" stroke-linecap="round" stroke-linejoin="round"/>
<path d="M21.0385 15.9488V23.5025C21.0385 23.9032 20.8793 24.2874 20.596 24.5708C20.3127 24.8541 19.9284 25.0132 19.5278 25.0132H4.42029C4.01962 25.0132 3.63535 24.8541 3.35203 24.5708C3.06871 24.2874 2.90955 23.9032 2.90955 23.5025V8.39502C2.90955 7.99435 3.06871 7.61008 3.35203 7.32676C3.63535 7.04344 4.01962 6.88428 4.42029 6.88428H11.974" stroke="#1E1E1E" stroke-width="2" stroke-linecap="round" stroke-linejoin="round"/>
</svg>
